<?xml version="1.0" standalone="no"?>
<!DOCTYPE svg PUBLIC "-//W3C//DTD SVG 20010904//EN"
 "http://www.w3.org/TR/2001/REC-SVG-20010904/DTD/svg10.dtd">
<svg version="1.0" xmlns="http://www.w3.org/2000/svg"
 width="219.000000pt" height="219.000000pt" viewBox="0 0 219.000000 219.000000"
 preserveAspectRatio="xMidYMid meet">
<metadata>
Created by potrace 1.14, written by Peter Selinger 2001-2017
</metadata>
<g transform="translate(0.000000,219.000000) scale(0.100000,-0.100000)"
fill="#000000" stroke="none">
<path d="M910 1649 c-41 -22 -106 -60 -145 -84 -38 -24 -97 -60 -131 -79 -34
-19 -67 -42 -74 -51 -7 -8 -18 -15 -24 -15 -7 0 -25 -14 -42 -31 -16 -17 -45
-38 -64 -47 -19 -9 -44 -24 -54 -34 -11 -10 -26 -18 -33 -18 -8 0 -12 -4 -8
-9 12 -20 90 -1 142 35 46 32 84 39 68 13 -4 -5 1 -9 11 -9 9 0 53 27 96 60
44 33 84 60 89 60 4 0 26 -19 47 -41 37 -40 39 -41 56 -23 13 13 17 27 13 55
-4 30 0 44 20 68 28 33 43 32 44 -2 0 -21 1 -21 11 3 26 62 50 107 72 134 l24
29 30 -29 c17 -16 45 -41 64 -55 26 -21 37 -40 47 -80 10 -40 26 -68 61 -108
36 -40 47 -47 43 -30 -6 23 -6 23 29 -6 20 -16 42 -40 49 -52 14 -26 34 -31
25 -7 -3 9 -6 24 -6 34 0 20 -11 33 -53 65 -36 27 -38 54 -2 31 28 -18 33 -10
10 20 -8 10 -15 25 -15 33 0 8 -7 22 -15 31 -12 13 -14 28 -9 59 4 23 9 40 13
38 3 -1 38 -18 76 -36 39 -19 81 -44 95 -56 14 -12 43 -32 65 -44 l40 -23 -30
26 c-16 14 -33 26 -37 26 -5 0 -8 5 -8 10 0 13 22 2 112 -56 37 -24 72 -44 78
-44 6 0 32 -21 57 -46 47 -47 87 -77 107 -80 6 -1 25 -5 41 -9 l30 -7 -35 27
c-19 14 -51 35 -70 45 -19 10 -57 41 -83 69 -26 28 -60 54 -75 58 -15 3 -44
19 -64 33 -40 29 -195 99 -236 106 -14 3 -34 11 -46 19 -26 19 -66 19 -91 2
-26 -18 -83 -29 -87 -17 -5 13 -120 80 -137 80 -9 -1 -50 -19 -91 -41z"/>
<path d="M324 1202 c-4 -20 -8 -41 -10 -47 -3 -11 -23 -108 -30 -145 -3 -14
-9 -41 -14 -60 -14 -52 -12 -66 11 -67 22 -2 31 14 38 68 1 3 17 6 36 6 30 0
35 -4 36 -24 1 -12 2 -29 3 -35 1 -14 43 -20 51 -9 2 4 0 25 -6 47 -5 21 -11
53 -14 69 -3 17 -16 72 -28 124 -18 75 -27 96 -44 102 -18 7 -22 3 -29 -29z
m42 -188 c-3 -8 -12 -11 -21 -8 -12 5 -14 14 -10 38 14 69 18 73 28 28 4 -24
6 -50 3 -58z"/>
<path d="M0 1056 c0 -182 1 -186 40 -168 11 5 15 24 15 71 0 37 5 66 11 68 6
2 21 -30 34 -72 21 -66 26 -74 47 -73 29 3 29 17 1 94 -21 58 -21 63 -5 78 9
10 18 25 19 34 6 73 5 83 -20 120 -5 7 -38 15 -75 19 l-67 5 0 -176z m109 102
c5 -13 7 -30 5 -38 -1 -8 -3 -20 -3 -26 -1 -15 -35 -24 -50 -14 -7 4 -11 26
-10 53 2 42 5 47 26 47 15 0 27 -8 32 -22z"/>
<path d="M549 1223 c-6 -36 -3 -336 3 -340 5 -2 17 -2 27 2 17 5 18 18 18 175
l-1 170 -23 0 c-13 0 -24 -3 -24 -7z"/>
<path d="M717 1224 c-11 -12 -8 -332 3 -339 6 -3 18 -4 28 -1 15 5 18 18 17
90 -1 47 2 83 6 81 3 -3 19 -39 34 -82 31 -90 36 -97 62 -89 18 6 19 17 19
174 l-1 167 -25 0 c-24 0 -25 -2 -27 -70 0 -38 -2 -81 -2 -95 -1 -15 -15 13
-34 70 -26 74 -37 96 -53 98 -11 2 -23 0 -27 -4z"/>
<path d="M980 1226 c0 -1 14 -42 31 -92 23 -67 32 -109 33 -169 2 -78 2 -80
26 -80 24 0 25 3 28 78 2 52 13 105 32 163 16 48 27 90 24 95 -3 5 -14 9 -24
9 -14 0 -23 -13 -34 -50 -23 -77 -28 -79 -45 -15 -14 53 -19 60 -43 62 -16 1
-28 1 -28 -1z"/>
<path d="M1259 1209 c-3 -119 1 -310 6 -319 7 -11 84 -8 116 5 29 11 39 54 39
168 -1 143 -9 157 -98 164 -60 5 -62 4 -63 -18z m99 -42 c13 -16 13 -208 -1
-224 -5 -7 -18 -13 -28 -13 -18 0 -19 9 -19 125 0 116 1 125 19 125 10 0 23
-6 29 -13z"/>
<path d="M1570 1168 c-7 -35 -14 -67 -16 -73 -1 -5 -7 -30 -13 -55 -12 -45
-13 -54 -26 -123 -6 -36 -5 -38 16 -35 15 2 26 14 34 38 10 29 17 35 41 35 25
0 30 -5 38 -37 7 -28 14 -37 27 -35 10 2 21 6 24 9 4 3 -10 78 -29 165 -20 88
-36 163 -36 166 0 4 -10 7 -23 7 -20 0 -25 -8 -37 -62z m53 -154 c-2 -7 -12
-10 -22 -7 -15 4 -16 10 -7 55 l11 51 11 -44 c6 -24 9 -49 7 -55z"/>
<path d="M1754 1213 c4 -10 9 -25 11 -33 2 -8 14 -45 28 -82 17 -48 24 -86 23
-133 -1 -68 10 -92 38 -82 11 4 16 29 19 89 4 79 6 93 20 128 13 32 37 111 37
120 0 14 -37 12 -47 -2 -4 -7 -15 -38 -24 -68 l-16 -55 -19 65 c-18 59 -22 65
-48 68 -24 3 -28 1 -22 -15z"/>
<path d="M2052 1210 c-26 -24 -35 -55 -28 -94 7 -37 20 -52 72 -78 35 -17 44
-27 44 -48 0 -40 -24 -68 -47 -54 -10 6 -20 19 -23 30 -3 11 -14 19 -25 19
-16 0 -20 -7 -18 -34 2 -44 22 -63 72 -67 58 -4 82 19 88 83 6 63 -6 87 -60
114 -49 25 -57 35 -51 62 8 46 51 47 64 1 8 -30 44 -24 48 8 7 63 -87 103
-136 58z"/>
<path d="M233 775 c0 -8 4 -12 9 -9 5 3 6 10 3 15 -9 13 -12 11 -12 -6z"/>
<path d="M266 778 c5 -8 63 -7 68 1 2 3 -13 6 -34 6 -21 0 -36 -3 -34 -7z"/>
<path d="M351 774 c0 -11 3 -14 6 -6 3 7 2 16 -1 19 -3 4 -6 -2 -5 -13z"/>
<path d="M373 775 c4 -10 1416 -17 1445 -7 6 2 12 7 12 11 0 3 -329 6 -730 6
-488 0 -729 -3 -727 -10z"/>
<path d="M1846 781 c-3 -4 14 -8 36 -10 23 -1 46 -5 52 -8 7 -4 8 -3 1 4 -13
13 -83 24 -89 14z"/>
<path d="M1946 778 c3 -5 10 -6 15 -3 13 9 11 12 -6 12 -8 0 -12 -4 -9 -9z"/>
<path d="M1988 773 c7 -3 16 -2 19 1 4 3 -2 6 -13 5 -11 0 -14 -3 -6 -6z"/>
<path d="M381 641 c-8 -5 -11 -25 -8 -57 2 -36 6 -43 11 -29 4 12 17 25 29 30
12 6 22 18 22 29 0 21 -35 38 -54 27z m37 -29 c2 -7 -3 -12 -12 -12 -9 0 -16
7 -16 16 0 17 22 14 28 -4z"/>
<path d="M600 630 c-8 -75 -1 -124 10 -66 5 28 33 52 29 25 -3 -28 1 -50 10
-45 9 6 7 48 -4 66 -4 6 -13 9 -20 6 -8 -3 -15 4 -18 17 -4 20 -4 20 -7 -3z"/>
<path d="M1133 640 c-32 -13 -34 -85 -3 -95 21 -7 40 0 40 15 0 4 -8 6 -19 3
-19 -5 -30 17 -23 50 3 13 9 16 30 10 24 -6 26 -5 13 10 -7 10 -14 17 -15 16
0 0 -11 -4 -23 -9z"/>
<path d="M1391 641 c-7 -5 -13 -22 -12 -37 1 -16 2 -37 2 -46 0 -10 5 -18 10
-18 6 0 9 12 7 28 -2 15 2 28 7 29 6 2 10 -7 10 -19 0 -11 8 -26 18 -32 14 -9
21 -7 32 7 14 20 9 56 -9 58 -6 1 -20 2 -31 3 -13 1 -19 7 -17 19 3 19 2 20
-17 8z m64 -61 c0 -7 -6 -15 -12 -17 -8 -3 -13 4 -13 17 0 13 5 20 13 18 6 -3
12 -11 12 -18z"/>
<path d="M1620 638 c0 -5 7 -8 15 -8 20 0 19 -8 -5 -48 -11 -18 -20 -35 -20
-37 0 -11 59 -4 66 7 5 8 2 9 -9 5 -24 -9 -31 10 -13 35 24 34 20 56 -9 54
-14 0 -25 -4 -25 -8z"/>
<path d="M892 595 c3 -44 6 -50 26 -51 12 -1 23 5 23 12 1 8 2 19 3 26 0 6 7
13 14 16 8 2 12 -7 12 -29 0 -24 3 -30 11 -22 17 17 6 56 -18 69 -13 6 -20 14
-16 17 3 4 1 7 -5 7 -7 0 -12 -16 -12 -39 0 -22 -4 -42 -9 -45 -12 -8 -21 30
-10 41 5 5 3 17 -6 29 -14 18 -15 15 -13 -31z"/>
<path d="M1546 625 c-3 -9 -10 -14 -15 -11 -21 13 -41 -7 -41 -41 0 -21 4 -32
10 -28 6 4 10 12 9 18 -3 28 2 37 22 37 15 0 19 -5 15 -15 -6 -17 2 -45 13
-45 8 0 7 88 -1 96 -3 3 -8 -2 -12 -11z"/>
<path d="M239 613 c9 -18 8 -28 -6 -50 l-17 -28 23 20 c22 19 23 19 54 1 l32
-18 -23 25 c-21 22 -22 28 -11 49 12 22 11 22 -8 6 -18 -17 -20 -17 -37 0 -18
16 -18 16 -7 -5z"/>
<path d="M1970 618 c0 -9 5 -18 11 -20 6 -2 1 -14 -10 -27 -26 -30 -27 -40 -3
-18 24 22 48 22 56 1 4 -9 9 -14 13 -10 3 3 -2 15 -12 26 -17 19 -17 21 1 41
19 21 19 21 -9 8 -24 -11 -30 -11 -38 2 -7 12 -9 11 -9 -3z"/>
<path d="M452 584 c3 -35 6 -39 31 -40 25 -1 27 2 27 39 0 42 -8 46 -15 7 -8
-40 -25 -48 -25 -13 0 18 -5 35 -11 38 -7 5 -9 -6 -7 -31z"/>
<path d="M536 612 c-13 -12 -5 -41 12 -45 16 -4 16 -5 0 -6 -27 -2 -22 -21 5
-21 28 0 32 28 8 47 -14 11 -14 12 3 13 11 0 16 3 12 7 -9 9 -33 12 -40 5z"/>
<path d="M674 580 c0 -22 3 -40 8 -40 4 0 8 18 8 40 0 22 -4 40 -8 40 -4 0 -8
-18 -8 -40z"/>
<path d="M709 603 c-4 -43 -2 -57 7 -60 5 -2 10 9 9 23 0 15 6 29 13 31 8 3
12 -6 12 -29 1 -26 3 -30 10 -16 15 25 -4 67 -30 65 -11 -1 -20 -7 -21 -14z"/>
<path d="M786 613 c-3 -4 -6 -21 -6 -40 0 -27 4 -33 23 -34 21 -1 21 -1 -3 -9
-24 -9 -24 -9 5 -7 27 2 30 5 30 37 1 19 -1 40 -2 45 -4 12 -38 17 -47 8z m34
-33 c0 -11 -6 -20 -14 -20 -12 0 -14 14 -7 38 1 1 6 2 11 2 6 0 10 -9 10 -20z"/>
<path d="M1015 606 c-17 -12 -18 -18 -7 -40 6 -14 18 -26 27 -26 21 0 19 17
-2 23 -14 4 -12 5 5 6 24 1 29 22 9 40 -10 8 -19 7 -32 -3z m25 -16 c0 -5 -2
-10 -4 -10 -3 0 -8 5 -11 10 -3 6 -1 10 4 10 6 0 11 -4 11 -10z"/>
<path d="M1199 610 c-14 -8 -17 -29 -10 -61 2 -9 35 -7 48 3 11 9 10 38 -2 58
-8 12 -15 12 -36 0z m31 -30 c0 -11 -4 -20 -9 -20 -14 0 -23 18 -16 30 10 17
25 11 25 -10z"/>
<path d="M1274 610 c-16 -4 -18 -11 -13 -40 6 -36 11 -36 13 0 2 32 20 28 26
-5 4 -20 8 -26 13 -17 5 6 6 16 3 20 -2 4 0 14 5 22 8 13 10 13 19 0 5 -8 8
-20 5 -27 -2 -7 0 -15 5 -18 6 -4 10 9 10 29 0 20 -3 36 -7 37 -38 4 -63 4
-79 -1z"/>
<path d="M1703 613 c-15 -5 -17 -41 -4 -62 5 -8 16 -11 28 -7 19 6 20 11 14
62 -1 11 -17 14 -38 7z m27 -33 c0 -19 -11 -26 -23 -14 -8 8 3 34 14 34 5 0 9
-9 9 -20z"/>
<path d="M1766 611 c-7 -10 -1 -59 7 -68 4 -3 7 8 7 25 0 31 19 46 21 17 3
-28 4 -33 12 -41 4 -4 7 9 7 29 0 21 -3 37 -7 38 -5 0 -16 2 -25 4 -10 2 -20
0 -22 -4z"/>
<path d="M1847 605 c-19 -18 -16 -45 6 -59 12 -8 20 -7 29 3 11 12 10 13 -4 8
-10 -3 -20 -2 -23 2 -2 5 6 12 20 15 22 6 24 9 15 26 -13 24 -24 25 -43 5z
m30 -11 c-3 -3 -12 -4 -19 -1 -8 3 -5 6 6 6 11 1 17 -2 13 -5z"/>
</g>
</svg>
